<?xml version="1.0" encoding="UTF-8" standalone="no"?>
<!-- Created with Inkscape (http://www.inkscape.org/) -->

<svg
   xmlns:dc="http://purl.org/dc/elements/1.1/"
   xmlns:cc="http://creativecommons.org/ns#"
   xmlns:rdf="http://www.w3.org/1999/02/22-rdf-syntax-ns#"
   xmlns:svg="http://www.w3.org/2000/svg"
   xmlns="http://www.w3.org/2000/svg"
   xmlns:sodipodi="http://sodipodi.sourceforge.net/DTD/sodipodi-0.dtd"
   xmlns:inkscape="http://www.inkscape.org/namespaces/inkscape"
   width="40"
   height="40"
   id="svg2"
   version="1.1"
   inkscape:version="0.48.0 r9654"
   sodipodi:docname="create_button.svg"
   inkscape:export-filename="C:\Documents and Settings\daishi\My Documents\My Pictures\create_button.png"
   inkscape:export-xdpi="63"
   inkscape:export-ydpi="63">
  <defs
     id="defs4" />
  <sodipodi:namedview
     id="base"
     pagecolor="#ffffff"
     bordercolor="#666666"
     borderopacity="1.0"
     inkscape:pageopacity="0.0"
     inkscape:pageshadow="2"
     inkscape:zoom="10.025"
     inkscape:cx="20"
     inkscape:cy="20"
     inkscape:document-units="px"
     inkscape:current-layer="layer1"
     showgrid="false"
     inkscape:window-width="1024"
     inkscape:window-height="714"
     inkscape:window-x="-4"
     inkscape:window-y="-4"
     inkscape:window-maximized="1" />
  <metadata
     id="metadata7">
    <rdf:RDF>
      <cc:Work
         rdf:about="">
        <dc:format>image/svg+xml</dc:format>
        <dc:type
           rdf:resource="http://purl.org/dc/dcmitype/StillImage" />
        <dc:title></dc:title>
      </cc:Work>
    </rdf:RDF>
  </metadata>
  <g
     inkscape:label="レイヤー 1"
     inkscape:groupmode="layer"
     id="layer1"
     transform="translate(0,-1012.3622)">
    <path
       sodipodi:type="arc"
       style="fill:none;stroke:#888888;stroke-width:16.1682617;stroke-miterlimit:4;stroke-opacity:1;stroke-dasharray:none"
       id="path2983"
       sodipodi:cx="-137.25685"
       sodipodi:cy="-18.453865"
       sodipodi:rx="21.945137"
       sodipodi:ry="20.548628"
       d="m -115.31171,-18.453865 c 0,11.3486937 -9.82518,20.5486278 -21.94514,20.5486278 -12.11997,0 -21.94514,-9.1999341 -21.94514,-20.5486278 0,-11.348694 9.82517,-20.548628 21.94514,-20.548628 12.11996,0 21.94514,9.199934 21.94514,20.548628 z"
       transform="matrix(0.58724114,0,0,0.62715075,98.395887,1041.7286)" />
    <path
       style="fill:#696969;fill-opacity:1;stroke:#000000;stroke-width:2;stroke-linecap:butt;stroke-linejoin:miter;stroke-miterlimit:4;stroke-opacity:1;stroke-dasharray:none"
       d="m 25.248159,1023.6113 c -2.649392,0 -4.773983,2.1247 -4.773983,4.7739 l 0,4.4512 -4.451106,0 c -2.649392,0 -4.773984,2.1247 -4.773984,4.7739 0,2.6495 2.124592,4.7741 4.773984,4.7741 l 4.451106,0 0,4.451 c 0,2.6495 2.124591,4.7741 4.773983,4.7741 2.649391,0 4.773983,-2.1246 4.773983,-4.7741 l 0,-4.451 4.451106,0 c 2.649392,0 4.773984,-2.1246 4.773984,-4.7741 0,-2.6492 -2.124592,-4.7739 -4.773984,-4.7739 l -4.451106,0 0,-4.4512 c 0,-2.6492 -2.124592,-4.7739 -4.773983,-4.7739 z"
       id="rect3759"
       inkscape:connector-curvature="0" />
  </g>
</svg>
