<?xml version="1.0" encoding="UTF-8" standalone="no"?>
<!-- Created with Inkscape (http://www.inkscape.org/) -->

<svg
   xmlns:dc="http://purl.org/dc/elements/1.1/"
   xmlns:cc="http://creativecommons.org/ns#"
   xmlns:rdf="http://www.w3.org/1999/02/22-rdf-syntax-ns#"
   xmlns:svg="http://www.w3.org/2000/svg"
   xmlns="http://www.w3.org/2000/svg"
   xmlns:sodipodi="http://sodipodi.sourceforge.net/DTD/sodipodi-0.dtd"
   xmlns:inkscape="http://www.inkscape.org/namespaces/inkscape"
   width="40"
   height="40"
   id="svg2"
   version="1.1"
   inkscape:version="0.48.0 r9654"
   sodipodi:docname="create_button.svg"
   inkscape:export-filename="C:\Documents and Settings\daishi\My Documents\create_button.png"
   inkscape:export-xdpi="63"
   inkscape:export-ydpi="63">
  <defs
     id="defs4" />
  <sodipodi:namedview
     id="base"
     pagecolor="#ffffff"
     bordercolor="#666666"
     borderopacity="1.0"
     inkscape:pageopacity="0.0"
     inkscape:pageshadow="2"
     inkscape:zoom="10.025"
     inkscape:cx="20"
     inkscape:cy="20"
     inkscape:document-units="px"
     inkscape:current-layer="layer1"
     showgrid="false"
     inkscape:window-width="1024"
     inkscape:window-height="714"
     inkscape:window-x="-4"
     inkscape:window-y="-4"
     inkscape:window-maximized="1" />
  <metadata
     id="metadata7">
    <rdf:RDF>
      <cc:Work
         rdf:about="">
        <dc:format>image/svg+xml</dc:format>
        <dc:type
           rdf:resource="http://purl.org/dc/dcmitype/StillImage" />
        <dc:title></dc:title>
      </cc:Work>
    </rdf:RDF>
  </metadata>
  <g
     inkscape:label="レイヤー 1"
     inkscape:groupmode="layer"
     id="layer1"
     transform="translate(0,-1012.3622)">
    <path
       style="fill:#696969;fill-opacity:1;stroke:#000000;stroke-width:2.03999996;stroke-linecap:butt;stroke-linejoin:miter;stroke-miterlimit:4;stroke-opacity:1;stroke-dasharray:none"
       d="M 20 1.03125 C 16.410074 1.03125 13.53125 3.9100736 13.53125 7.5 L 13.53125 13.53125 L 7.5 13.53125 C 3.9100736 13.53125 1.03125 16.410074 1.03125 20 C 1.03125 23.589926 3.9100736 26.46875 7.5 26.46875 L 13.53125 26.46875 L 13.53125 32.5 C 13.53125 36.089926 16.410074 38.96875 20 38.96875 C 23.589926 38.96875 26.46875 36.089926 26.46875 32.5 L 26.46875 26.46875 L 32.5 26.46875 C 36.089926 26.46875 38.96875 23.589926 38.96875 20 C 38.96875 16.410074 36.089926 13.53125 32.5 13.53125 L 26.46875 13.53125 L 26.46875 7.5 C 26.46875 3.9100736 23.589926 1.03125 20 1.03125 z "
       transform="translate(0,1012.3622)"
       id="rect3759" />
  </g>
</svg>
