<?xml version="1.0" encoding="UTF-8" standalone="no"?>
<!-- Created with Inkscape (http://www.inkscape.org/) -->

<svg
   xmlns:dc="http://purl.org/dc/elements/1.1/"
   xmlns:cc="http://creativecommons.org/ns#"
   xmlns:rdf="http://www.w3.org/1999/02/22-rdf-syntax-ns#"
   xmlns:svg="http://www.w3.org/2000/svg"
   xmlns="http://www.w3.org/2000/svg"
   xmlns:sodipodi="http://sodipodi.sourceforge.net/DTD/sodipodi-0.dtd"
   xmlns:inkscape="http://www.inkscape.org/namespaces/inkscape"
   width="114"
   height="114"
   id="svg2"
   version="1.1"
   inkscape:version="0.48.0 r9654"
   sodipodi:docname="favicon.svg"
   inkscape:export-filename="C:\Documents and Settings\daishi\My Documents\My Pictures\apple-touch-icon.png"
   inkscape:export-xdpi="90"
   inkscape:export-ydpi="90">
  <defs
     id="defs4">
    <marker
       inkscape:stockid="Arrow1Lend"
       orient="auto"
       refY="0.0"
       refX="0.0"
       id="Arrow1Lend"
       style="overflow:visible;">
      <path
         id="path3765"
         d="M 0.0,0.0 L 5.0,-5.0 L -12.5,0.0 L 5.0,5.0 L 0.0,0.0 z "
         style="fill-rule:evenodd;stroke:#000000;stroke-width:1.0pt;marker-start:none;"
         transform="scale(0.8) rotate(180) translate(12.5,0)" />
    </marker>
    <filter
       inkscape:collect="always"
       id="filter4556">
      <feGaussianBlur
         inkscape:collect="always"
         stdDeviation="0.90729989"
         id="feGaussianBlur4558" />
    </filter>
    <filter
       inkscape:collect="always"
       id="filter3843">
      <feGaussianBlur
         inkscape:collect="always"
         stdDeviation="3.316191"
         id="feGaussianBlur3845" />
    </filter>
    <filter
       inkscape:collect="always"
       id="filter3842">
      <feGaussianBlur
         inkscape:collect="always"
         stdDeviation="2.9563711"
         id="feGaussianBlur3844" />
    </filter>
    <filter
       inkscape:collect="always"
       id="filter3864">
      <feGaussianBlur
         inkscape:collect="always"
         stdDeviation="3.2491492"
         id="feGaussianBlur3866" />
    </filter>
    <filter
       inkscape:collect="always"
       id="filter3982"
       x="-0.11089677"
       width="1.2217935"
       y="-0.10525071"
       height="1.2105014">
      <feGaussianBlur
         inkscape:collect="always"
         stdDeviation="4.2112276"
         id="feGaussianBlur3984" />
    </filter>
  </defs>
  <sodipodi:namedview
     id="base"
     pagecolor="#ffffff"
     bordercolor="#666666"
     borderopacity="1.0"
     inkscape:pageopacity="0.0"
     inkscape:pageshadow="2"
     inkscape:zoom="0.87938598"
     inkscape:cx="69.555804"
     inkscape:cy="-26.739069"
     inkscape:document-units="px"
     inkscape:current-layer="layer1"
     showgrid="false"
     inkscape:window-width="1024"
     inkscape:window-height="714"
     inkscape:window-x="-4"
     inkscape:window-y="-4"
     inkscape:window-maximized="1" />
  <metadata
     id="metadata7">
    <rdf:RDF>
      <cc:Work
         rdf:about="">
        <dc:format>image/svg+xml</dc:format>
        <dc:type
           rdf:resource="http://purl.org/dc/dcmitype/StillImage" />
        <dc:title></dc:title>
      </cc:Work>
    </rdf:RDF>
  </metadata>
  <g
     inkscape:label="レイヤー 1"
     inkscape:groupmode="layer"
     id="layer1"
     transform="translate(0,-938.36218)">
    <g
       style="fill:#000000;fill-opacity:1;stroke:#000000;stroke-opacity:1;filter:url(#filter3982)"
       transform="translate(122.11993,-3.2936027)"
       id="g3986">
      <text
         xml:space="preserve"
         style="font-size:136px;font-style:normal;font-variant:normal;font-weight:normal;font-stretch:normal;text-align:start;line-height:125%;letter-spacing:0px;word-spacing:0px;writing-mode:lr-tb;text-anchor:start;fill:#000000;fill-opacity:1;stroke:#000000;stroke-opacity:1;font-family:Gill Sans MT;-inkscape-font-specification:Gill Sans MT"
         x="-119.68578"
         y="1045.235"
         id="text3988"
         sodipodi:linespacing="125%"><tspan
           sodipodi:role="line"
           id="tspan3990"
           x="-119.68578"
           y="1045.235">G</tspan></text>
      <path
         sodipodi:type="arc"
         style="fill:#000000;fill-opacity:1;stroke:#000000;stroke-width:20.56677437;stroke-linecap:butt;stroke-linejoin:round;stroke-miterlimit:4;stroke-opacity:1;stroke-dasharray:none"
         id="path3992"
         sodipodi:cx="38.64407"
         sodipodi:cy="39.368645"
         sodipodi:rx="28.016949"
         sodipodi:ry="23.911016"
         d="m 66.661018,39.368645 c 0,13.205689 -12.543615,23.911016 -28.016948,23.911016 -15.473334,0 -28.016949,-10.705327 -28.016949,-23.911016 0,-13.20569 12.543615,-23.911017 28.016949,-23.911017 15.473333,0 28.016948,10.705327 28.016948,23.911017 z"
         transform="matrix(0.4491821,0,0,0.52631437,-52.084143,1011.6479)" />
      <path
         transform="matrix(0.4491821,0,0,0.52631437,-55.20135,947.66286)"
         d="m 66.661018,39.368645 c 0,13.205689 -12.543615,23.911016 -28.016948,23.911016 -15.473334,0 -28.016949,-10.705327 -28.016949,-23.911016 0,-13.20569 12.543615,-23.911017 28.016949,-23.911017 15.473333,0 28.016948,10.705327 28.016948,23.911017 z"
         sodipodi:ry="23.911016"
         sodipodi:rx="28.016949"
         sodipodi:cy="39.368645"
         sodipodi:cx="38.64407"
         id="path3994"
         style="fill:#000000;fill-opacity:1;stroke:#000000;stroke-width:20.56677437;stroke-linecap:butt;stroke-linejoin:round;stroke-miterlimit:4;stroke-opacity:1;stroke-dasharray:none"
         sodipodi:type="arc" />
      <path
         sodipodi:type="arc"
         style="fill:#000000;fill-opacity:1;stroke:#000000;stroke-width:20.56677437;stroke-linecap:butt;stroke-linejoin:round;stroke-miterlimit:4;stroke-opacity:1;stroke-dasharray:none"
         id="path3996"
         sodipodi:cx="38.64407"
         sodipodi:cy="39.368645"
         sodipodi:rx="28.016949"
         sodipodi:ry="23.911016"
         d="m 66.661018,39.368645 c 0,13.205689 -12.543615,23.911016 -28.016948,23.911016 -15.473334,0 -28.016949,-10.705327 -28.016949,-23.911016 0,-13.20569 12.543615,-23.911017 28.016949,-23.911017 15.473333,0 28.016948,10.705327 28.016948,23.911017 z"
         transform="matrix(0.4491821,0,0,0.52631437,-114.04923,949.08431)" />
      <path
         transform="matrix(0.4491821,0,0,0.52631437,-113.21631,1007.3636)"
         d="m 66.661018,39.368645 c 0,13.205689 -12.543615,23.911016 -28.016948,23.911016 -15.473334,0 -28.016949,-10.705327 -28.016949,-23.911016 0,-13.20569 12.543615,-23.911017 28.016949,-23.911017 15.473333,0 28.016948,10.705327 28.016948,23.911017 z"
         sodipodi:ry="23.911016"
         sodipodi:rx="28.016949"
         sodipodi:cy="39.368645"
         sodipodi:cx="38.64407"
         id="path3998"
         style="fill:#000000;fill-opacity:1;stroke:#000000;stroke-width:20.56677437;stroke-linecap:butt;stroke-linejoin:round;stroke-miterlimit:4;stroke-opacity:1;stroke-dasharray:none"
         sodipodi:type="arc" />
      <path
         sodipodi:type="arc"
         style="fill:#000000;fill-opacity:1;stroke:#000000;stroke-width:20.56677437;stroke-linecap:butt;stroke-linejoin:round;stroke-miterlimit:4;stroke-opacity:1;stroke-dasharray:none"
         id="path4000"
         sodipodi:cx="38.64407"
         sodipodi:cy="39.368645"
         sodipodi:rx="28.016949"
         sodipodi:ry="23.911016"
         d="m 66.661018,39.368645 c 0,13.205689 -12.543615,23.911016 -28.016948,23.911016 -15.473334,0 -28.016949,-10.705327 -28.016949,-23.911016 0,-13.20569 12.543615,-23.911017 28.016949,-23.911017 15.473333,0 28.016948,10.705327 28.016948,23.911017 z"
         transform="matrix(0.4491821,0,0,0.52631437,-80.288632,982.0918)" />
    </g>
    <g
       id="g3809"
       transform="translate(122.11993,-3.2936027)"
       style="fill:#ffffff;fill-opacity:1;stroke:#ffffff;stroke-opacity:1;filter:url(#filter3982)">
      <text
         sodipodi:linespacing="125%"
         id="text3782"
         y="1045.235"
         x="-119.68578"
         style="font-size:136px;font-style:normal;font-variant:normal;font-weight:normal;font-stretch:normal;text-align:start;line-height:125%;letter-spacing:0px;word-spacing:0px;writing-mode:lr-tb;text-anchor:start;fill:#ffffff;fill-opacity:1;stroke:#ffffff;stroke-opacity:1;font-family:Gill Sans MT;-inkscape-font-specification:Gill Sans MT"
         xml:space="preserve"><tspan
           y="1045.235"
           x="-119.68578"
           id="tspan3784"
           sodipodi:role="line">G</tspan></text>
      <path
         transform="matrix(0.4491821,0,0,0.52631437,-52.084143,1011.6479)"
         d="m 66.661018,39.368645 c 0,13.205689 -12.543615,23.911016 -28.016948,23.911016 -15.473334,0 -28.016949,-10.705327 -28.016949,-23.911016 0,-13.20569 12.543615,-23.911017 28.016949,-23.911017 15.473333,0 28.016948,10.705327 28.016948,23.911017 z"
         sodipodi:ry="23.911016"
         sodipodi:rx="28.016949"
         sodipodi:cy="39.368645"
         sodipodi:cx="38.64407"
         id="path3778"
         style="fill:#ffffff;fill-opacity:1;stroke:#ffffff;stroke-width:20.56677437;stroke-linecap:butt;stroke-linejoin:round;stroke-miterlimit:4;stroke-opacity:1;stroke-dasharray:none"
         sodipodi:type="arc" />
      <path
         sodipodi:type="arc"
         style="fill:#ffffff;fill-opacity:1;stroke:#ffffff;stroke-width:20.56677437;stroke-linecap:butt;stroke-linejoin:round;stroke-miterlimit:4;stroke-opacity:1;stroke-dasharray:none"
         id="path3786"
         sodipodi:cx="38.64407"
         sodipodi:cy="39.368645"
         sodipodi:rx="28.016949"
         sodipodi:ry="23.911016"
         d="m 66.661018,39.368645 c 0,13.205689 -12.543615,23.911016 -28.016948,23.911016 -15.473334,0 -28.016949,-10.705327 -28.016949,-23.911016 0,-13.20569 12.543615,-23.911017 28.016949,-23.911017 15.473333,0 28.016948,10.705327 28.016948,23.911017 z"
         transform="matrix(0.4491821,0,0,0.52631437,-55.20135,947.66286)" />
      <path
         transform="matrix(0.4491821,0,0,0.52631437,-114.04923,949.08431)"
         d="m 66.661018,39.368645 c 0,13.205689 -12.543615,23.911016 -28.016948,23.911016 -15.473334,0 -28.016949,-10.705327 -28.016949,-23.911016 0,-13.20569 12.543615,-23.911017 28.016949,-23.911017 15.473333,0 28.016948,10.705327 28.016948,23.911017 z"
         sodipodi:ry="23.911016"
         sodipodi:rx="28.016949"
         sodipodi:cy="39.368645"
         sodipodi:cx="38.64407"
         id="path3788"
         style="fill:#ffffff;fill-opacity:1;stroke:#ffffff;stroke-width:20.56677437;stroke-linecap:butt;stroke-linejoin:round;stroke-miterlimit:4;stroke-opacity:1;stroke-dasharray:none"
         sodipodi:type="arc" />
      <path
         sodipodi:type="arc"
         style="fill:#ffffff;fill-opacity:1;stroke:#ffffff;stroke-width:20.56677437;stroke-linecap:butt;stroke-linejoin:round;stroke-miterlimit:4;stroke-opacity:1;stroke-dasharray:none"
         id="path3790"
         sodipodi:cx="38.64407"
         sodipodi:cy="39.368645"
         sodipodi:rx="28.016949"
         sodipodi:ry="23.911016"
         d="m 66.661018,39.368645 c 0,13.205689 -12.543615,23.911016 -28.016948,23.911016 -15.473334,0 -28.016949,-10.705327 -28.016949,-23.911016 0,-13.20569 12.543615,-23.911017 28.016949,-23.911017 15.473333,0 28.016948,10.705327 28.016948,23.911017 z"
         transform="matrix(0.4491821,0,0,0.52631437,-113.21631,1007.3636)" />
      <path
         transform="matrix(0.4491821,0,0,0.52631437,-80.288632,982.0918)"
         d="m 66.661018,39.368645 c 0,13.205689 -12.543615,23.911016 -28.016948,23.911016 -15.473334,0 -28.016949,-10.705327 -28.016949,-23.911016 0,-13.20569 12.543615,-23.911017 28.016949,-23.911017 15.473333,0 28.016948,10.705327 28.016948,23.911017 z"
         sodipodi:ry="23.911016"
         sodipodi:rx="28.016949"
         sodipodi:cy="39.368645"
         sodipodi:cx="38.64407"
         id="path3792"
         style="fill:#ffffff;fill-opacity:1;stroke:#ffffff;stroke-width:20.56677437;stroke-linecap:butt;stroke-linejoin:round;stroke-miterlimit:4;stroke-opacity:1;stroke-dasharray:none"
         sodipodi:type="arc" />
    </g>
    <g
       transform="translate(122.11993,-3.2936027)"
       id="g3818">
      <text
         xml:space="preserve"
         style="font-size:136px;font-style:normal;font-variant:normal;font-weight:normal;font-stretch:normal;text-align:start;line-height:125%;letter-spacing:0px;word-spacing:0px;writing-mode:lr-tb;text-anchor:start;fill:#000000;fill-opacity:1;stroke:none;font-family:Gill Sans MT;-inkscape-font-specification:Gill Sans MT"
         x="-119.68578"
         y="1045.235"
         id="text3820"
         sodipodi:linespacing="125%"><tspan
           sodipodi:role="line"
           id="tspan3822"
           x="-119.68578"
           y="1045.235">G</tspan></text>
      <path
         sodipodi:type="arc"
         style="fill:#ffffff;fill-opacity:1;stroke:#000000;stroke-width:20.56677437;stroke-linecap:butt;stroke-linejoin:round;stroke-miterlimit:4;stroke-opacity:1;stroke-dasharray:none"
         id="path3824"
         sodipodi:cx="38.64407"
         sodipodi:cy="39.368645"
         sodipodi:rx="28.016949"
         sodipodi:ry="23.911016"
         d="m 66.661018,39.368645 c 0,13.205689 -12.543615,23.911016 -28.016948,23.911016 -15.473334,0 -28.016949,-10.705327 -28.016949,-23.911016 0,-13.20569 12.543615,-23.911017 28.016949,-23.911017 15.473333,0 28.016948,10.705327 28.016948,23.911017 z"
         transform="matrix(0.4491821,0,0,0.52631437,-52.084143,1011.6479)" />
      <path
         transform="matrix(0.4491821,0,0,0.52631437,-55.20135,947.66286)"
         d="m 66.661018,39.368645 c 0,13.205689 -12.543615,23.911016 -28.016948,23.911016 -15.473334,0 -28.016949,-10.705327 -28.016949,-23.911016 0,-13.20569 12.543615,-23.911017 28.016949,-23.911017 15.473333,0 28.016948,10.705327 28.016948,23.911017 z"
         sodipodi:ry="23.911016"
         sodipodi:rx="28.016949"
         sodipodi:cy="39.368645"
         sodipodi:cx="38.64407"
         id="path3826"
         style="fill:#ffffff;fill-opacity:1;stroke:#000000;stroke-width:20.56677437;stroke-linecap:butt;stroke-linejoin:round;stroke-miterlimit:4;stroke-opacity:1;stroke-dasharray:none"
         sodipodi:type="arc" />
      <path
         sodipodi:type="arc"
         style="fill:#ffffff;fill-opacity:1;stroke:#000000;stroke-width:20.56677437;stroke-linecap:butt;stroke-linejoin:round;stroke-miterlimit:4;stroke-opacity:1;stroke-dasharray:none"
         id="path3828"
         sodipodi:cx="38.64407"
         sodipodi:cy="39.368645"
         sodipodi:rx="28.016949"
         sodipodi:ry="23.911016"
         d="m 66.661018,39.368645 c 0,13.205689 -12.543615,23.911016 -28.016948,23.911016 -15.473334,0 -28.016949,-10.705327 -28.016949,-23.911016 0,-13.20569 12.543615,-23.911017 28.016949,-23.911017 15.473333,0 28.016948,10.705327 28.016948,23.911017 z"
         transform="matrix(0.4491821,0,0,0.52631437,-114.04923,949.08431)" />
      <path
         transform="matrix(0.4491821,0,0,0.52631437,-113.21631,1007.3636)"
         d="m 66.661018,39.368645 c 0,13.205689 -12.543615,23.911016 -28.016948,23.911016 -15.473334,0 -28.016949,-10.705327 -28.016949,-23.911016 0,-13.20569 12.543615,-23.911017 28.016949,-23.911017 15.473333,0 28.016948,10.705327 28.016948,23.911017 z"
         sodipodi:ry="23.911016"
         sodipodi:rx="28.016949"
         sodipodi:cy="39.368645"
         sodipodi:cx="38.64407"
         id="path3830"
         style="fill:#ffffff;fill-opacity:1;stroke:#000000;stroke-width:20.56677437;stroke-linecap:butt;stroke-linejoin:round;stroke-miterlimit:4;stroke-opacity:1;stroke-dasharray:none"
         sodipodi:type="arc" />
      <path
         sodipodi:type="arc"
         style="fill:#ffffff;fill-opacity:1;stroke:#000000;stroke-width:20.56677437;stroke-linecap:butt;stroke-linejoin:round;stroke-miterlimit:4;stroke-opacity:1;stroke-dasharray:none"
         id="path3832"
         sodipodi:cx="38.64407"
         sodipodi:cy="39.368645"
         sodipodi:rx="28.016949"
         sodipodi:ry="23.911016"
         d="m 66.661018,39.368645 c 0,13.205689 -12.543615,23.911016 -28.016948,23.911016 -15.473334,0 -28.016949,-10.705327 -28.016949,-23.911016 0,-13.20569 12.543615,-23.911017 28.016949,-23.911017 15.473333,0 28.016948,10.705327 28.016948,23.911017 z"
         transform="matrix(0.4491821,0,0,0.52631437,-80.288632,982.0918)" />
    </g>
  </g>
</svg>
