<?xml version="1.0" encoding="UTF-8" standalone="no"?>
<!-- Created with Inkscape (http://www.inkscape.org/) -->

<svg
   xmlns:dc="http://purl.org/dc/elements/1.1/"
   xmlns:cc="http://creativecommons.org/ns#"
   xmlns:rdf="http://www.w3.org/1999/02/22-rdf-syntax-ns#"
   xmlns:svg="http://www.w3.org/2000/svg"
   xmlns="http://www.w3.org/2000/svg"
   xmlns:sodipodi="http://sodipodi.sourceforge.net/DTD/sodipodi-0.dtd"
   xmlns:inkscape="http://www.inkscape.org/namespaces/inkscape"
   width="40"
   height="40"
   id="svg2"
   version="1.1"
   inkscape:version="0.48.0 r9654"
   sodipodi:docname="next_button.svg"
   inkscape:export-filename="C:\Documents and Settings\daishi\My Documents\My Pictures\next_button.png"
   inkscape:export-xdpi="63"
   inkscape:export-ydpi="63">
  <defs
     id="defs4">
    <marker
       inkscape:stockid="TriangleInL"
       orient="auto"
       refY="0.0"
       refX="0.0"
       id="TriangleInL"
       style="overflow:visible">
      <path
         id="path4508"
         d="M 5.77,0.0 L -2.88,5.0 L -2.88,-5.0 L 5.77,0.0 z "
         style="fill-rule:evenodd;stroke:#000000;stroke-width:1.0pt;marker-start:none"
         transform="scale(-0.8)" />
    </marker>
    <marker
       inkscape:stockid="TriangleOutM"
       orient="auto"
       refY="0.0"
       refX="0.0"
       id="TriangleOutM"
       style="overflow:visible">
      <path
         id="path3929"
         d="M 5.77,0.0 L -2.88,5.0 L -2.88,-5.0 L 5.77,0.0 z "
         style="fill-rule:evenodd;stroke:#000000;stroke-width:1.0pt;marker-start:none"
         transform="scale(0.4)" />
    </marker>
    <marker
       inkscape:stockid="TriangleInM"
       orient="auto"
       refY="0"
       refX="0"
       id="TriangleInM"
       style="overflow:visible">
      <path
         inkscape:connector-curvature="0"
         id="path3920"
         d="m 5.77,0 -8.65,5 0,-10 8.65,5 z"
         style="fill-rule:evenodd;stroke:#000000;stroke-width:1pt;marker-start:none"
         transform="scale(-0.4,-0.4)" />
    </marker>
  </defs>
  <sodipodi:namedview
     id="base"
     pagecolor="#ffffff"
     bordercolor="#666666"
     borderopacity="1.0"
     inkscape:pageopacity="0.0"
     inkscape:pageshadow="2"
     inkscape:zoom="10.025"
     inkscape:cx="24.418953"
     inkscape:cy="20"
     inkscape:document-units="px"
     inkscape:current-layer="layer1"
     showgrid="false"
     inkscape:window-width="1024"
     inkscape:window-height="714"
     inkscape:window-x="-4"
     inkscape:window-y="-4"
     inkscape:window-maximized="1" />
  <metadata
     id="metadata7">
    <rdf:RDF>
      <cc:Work
         rdf:about="">
        <dc:format>image/svg+xml</dc:format>
        <dc:type
           rdf:resource="http://purl.org/dc/dcmitype/StillImage" />
        <dc:title />
      </cc:Work>
    </rdf:RDF>
  </metadata>
  <g
     inkscape:label="レイヤー 1"
     inkscape:groupmode="layer"
     id="layer1"
     transform="translate(0,-1012.3622)">
    <path
       style="fill:none;stroke:#000000;stroke-width:2;stroke-linecap:butt;stroke-linejoin:miter;stroke-miterlimit:4;stroke-opacity:1;stroke-dasharray:none"
       d="m 10.528677,1037.7985 6.982543,-11.9701"
       id="path3961"
       inkscape:connector-curvature="0" />
    <path
       inkscape:connector-curvature="0"
       id="path5029"
       d="m 29.51122,1037.7985 -6.982543,-11.9701"
       style="fill:none;stroke:#000000;stroke-width:2;stroke-linecap:butt;stroke-linejoin:miter;stroke-miterlimit:4;stroke-opacity:1;stroke-dasharray:none" />
    <path
       sodipodi:type="arc"
       style="fill:none;stroke:#888888;stroke-width:16.16826248;stroke-miterlimit:4;stroke-opacity:1;stroke-dasharray:none"
       id="path3957"
       sodipodi:cx="-137.25685"
       sodipodi:cy="-18.453865"
       sodipodi:rx="21.945137"
       sodipodi:ry="20.548628"
       d="m -115.31171,-18.453865 c 0,11.3486937 -9.82518,20.5486278 -21.94514,20.5486278 -12.11997,0 -21.94514,-9.1999341 -21.94514,-20.5486278 0,-11.348694 9.82517,-20.548628 21.94514,-20.548628 12.11996,0 21.94514,9.199934 21.94514,20.548628 z"
       transform="matrix(-0.28785264,0,0,-0.30741545,-19.489798,1015.4109)" />
    <path
       sodipodi:type="arc"
       style="fill:none;stroke:#888888;stroke-width:16.16826248;stroke-miterlimit:4;stroke-opacity:1;stroke-dasharray:none"
       id="path3772-2"
       sodipodi:cx="-137.25685"
       sodipodi:cy="-18.453865"
       sodipodi:rx="21.945137"
       sodipodi:ry="20.548628"
       d="m -115.31171,-18.453865 c 0,11.3486937 -9.82518,20.5486278 -21.94514,20.5486278 -12.11997,0 -21.94514,-9.1999341 -21.94514,-20.5486278 0,-11.348694 9.82517,-20.548628 21.94514,-20.548628 12.11996,0 21.94514,9.199934 21.94514,20.548628 z"
       transform="matrix(-0.28785264,0,0,-0.30741545,-30.768019,1037.9674)" />
    <path
       transform="matrix(-0.28785264,0,0,-0.30741545,-8.2115754,1037.9673)"
       d="m -115.31171,-18.453865 c 0,11.3486937 -9.82518,20.5486278 -21.94514,20.5486278 -12.11997,0 -21.94514,-9.1999341 -21.94514,-20.5486278 0,-11.348694 9.82517,-20.548628 21.94514,-20.548628 12.11996,0 21.94514,9.199934 21.94514,20.548628 z"
       sodipodi:ry="20.548628"
       sodipodi:rx="21.945137"
       sodipodi:cy="-18.453865"
       sodipodi:cx="-137.25685"
       id="path3955"
       style="fill:none;stroke:#888888;stroke-width:16.16826248;stroke-miterlimit:4;stroke-opacity:1;stroke-dasharray:none"
       sodipodi:type="arc" />
    <path
       sodipodi:nodetypes="ccccccccc"
       inkscape:connector-curvature="0"
       id="path3953"
       d="m 6.0497068,1045.9068 15.1030872,-10e-5 -0.225894,6.7118 10.460298,-10.4605 -10.451101,-10.4512 0.216717,6.7207 -15.1036012,10e-5 3.86e-4,7.4792 z"
       style="fill:#808080;fill-opacity:1;stroke:#000000;stroke-width:2;stroke-linecap:butt;stroke-linejoin:round;stroke-miterlimit:4;stroke-opacity:1;stroke-dasharray:none" />
  </g>
</svg>
